<svg xmlns="http://www.w3.org/2000/svg" width="1062.286" height="223.674" viewBox="0 0 1062.286 223.674" style="">
  <g id="Group_1" data-name="Group 1" transform="translate(-832.686 -599.257)">
    <path id="Path_1" data-name="Path 1" d="M1896.31,2226.31s41.053-48.947,6.316-53.684-53.684,11.053-63.158,34.737a41.375,41.375,0,0,0-2.92,21.07c.806,9.376,6.078,19.193,21.868,46.824,20.286,35.5,20.745,42.814,9.9,50.085a72.019,72.019,0,0,1-9.9,5.8,55.366,55.366,0,0,1-8.957,3.108s-15.542,3.571-25.483-1.657c-6.073-3.19-14.994-12.352,1.282-22.6,42.632-26.842,62.092-20.286,69.987-20.286" transform="translate(-981.302 -1538.63)" fill="none" stroke="#010000" stroke-linecap="round" stroke-linejoin="bevel" stroke-width="4" class="wCvgVBTp_0"></path>
    <g id="Path_2" data-name="Path 2" transform="translate(-980.266 -1513.63)" fill="none" stroke-linecap="round" stroke-linejoin="bevel">
      <path d="M1928.28,2261.09s-26.536-10.5-29.3,23.219S1928.28,2261.09,1928.28,2261.09Z" stroke="none" class="wCvgVBTp_1"></path>
      <path d="M 1919.396606445312 2263.543701171875 C 1915.3974609375 2263.543701171875 1912.083129882812 2264.731201171875 1909.5458984375 2267.07373046875 C 1905.856201171875 2270.480224609375 1903.642700195312 2276.388916015625 1902.966552734375 2284.635986328125 C 1902.747314453125 2287.310546875 1902.79248046875 2289.03173828125 1902.904663085938 2290.109619140625 C 1904.73291015625 2288.64111328125 1908.487060546875 2284.81884765625 1915.053833007812 2274.956298828125 C 1917.812622070312 2270.81298828125 1920.330200195312 2266.709228515625 1922.114624023438 2263.718505859375 C 1921.274536132812 2263.61279296875 1920.358276367188 2263.543701171875 1919.397216796875 2263.543701171875 L 1919.396606445312 2263.543701171875 M 1919.398559570312 2259.54345703125 C 1924.370727539062 2259.5439453125 1928.280029296875 2261.090087890625 1928.280029296875 2261.090087890625 C 1928.280029296875 2261.090087890625 1896.2158203125 2318.02685546875 1898.97998046875 2284.30908203125 C 1900.683349609375 2263.529052734375 1911.413208007812 2259.54296875 1919.398559570312 2259.54345703125 Z" stroke="none" fill="#010000" class="wCvgVBTp_2"></path>
    </g>
    <path id="Path_3" data-name="Path 3" d="M1936.48,2255.32l-8.194,6.32s0,35.381,15.479,22.666,76.291-89.006,70.763-95.087c-3.632-4-29.218,44.985-46.408,79.186-.879,1.748-1.735,3.458-2.684,5.357-7.439,14.883-12.071,23.424-12.071,23.424" transform="translate(-980.272 -1513.832)" fill="none" stroke="#010000" stroke-linecap="round" stroke-linejoin="bevel" stroke-width="4" class="wCvgVBTp_3"></path>
    <path id="Path_4" data-name="Path 4" d="M1968.37,2271.58s9.361-11.594,18.207-17.123,12.9-9.764,14.005-4.235c.689,3.444-22.408,14.705-22.408,14.705s-10.636,6.115-4.555,13.855,17.51,2.6,17.51,2.6,37.335-29.5,32.912-31.161c-1.862-.7-11.871,6.008-14.7,12.6-3.6,8.387.276,17.963,1.876,21.484,2.764,6.081,8.845,7.74,29.853-14.927s66.34-78.5,53.625-85.689c-10.554-5.965-61.9,116.6-61.9,116.6" transform="translate(-981.007 -1515.901)" fill="none" stroke="#010000" stroke-linecap="round" stroke-linejoin="bevel" stroke-width="4" class="wCvgVBTp_4"></path>
    <g id="Path_23" data-name="Path 23" transform="translate(-650.094 -1065.024)" fill="none" stroke-linecap="round" stroke-linejoin="bevel">
      <path d="M1741.2,1808.54c2.979,19.185-12.763,31.332-29.446,32.412-13.647.884,10.807-32.143,22.275-36.9,1.478-.617,3.683-.03,5.338,1.34a9.316,9.316,0,0,1,1.833,3.148Z" stroke="none" class="wCvgVBTp_5"></path>
      <path d="M 1735.413330078125 1807.81005859375 C 1731.711547851562 1809.43359375 1725.412475585938 1815.388549804688 1720.007202148438 1822.388549804688 C 1717.272338867188 1825.93017578125 1715.036865234375 1829.370361328125 1713.54248046875 1832.337280273438 C 1712.372680664062 1834.659423828125 1711.948120117188 1836.115478515625 1711.799560546875 1836.939331054688 C 1720.34423828125 1836.309204101562 1728.202514648438 1832.482788085938 1732.867553710938 1826.667114257812 C 1734.735717773438 1824.338134765625 1736.06591796875 1821.734008789062 1736.821166992188 1818.92724609375 C 1737.608276367188 1816.001831054688 1737.770629882812 1812.845703125 1737.3046875 1809.540893554688 C 1737.120971679688 1809.093505859375 1736.878784179688 1808.676513671875 1736.581420898438 1808.29541015625 C 1736.11279296875 1807.971923828125 1735.655517578125 1807.830810546875 1735.413330078125 1807.81005859375 M 1735.35400390625 1803.807250976562 C 1736.652954101562 1803.807250976562 1738.156860351562 1804.390258789062 1739.366943359375 1805.391967773438 C 1740.17919921875 1806.310424804688 1740.802124023438 1807.380249023438 1741.200073242188 1808.5400390625 L 1741.199951171875 1808.5400390625 C 1744.178955078125 1827.72509765625 1728.43701171875 1839.8720703125 1711.75390625 1840.952026367188 C 1711.573974609375 1840.963623046875 1711.400268554688 1840.969482421875 1711.233520507812 1840.969482421875 C 1698.7490234375 1840.969482421875 1722.712158203125 1808.746337890625 1734.028930664062 1804.052001953125 C 1734.42626953125 1803.886108398438 1734.876342773438 1803.807250976562 1735.35400390625 1803.807250976562 Z" stroke="none" fill="#010000" class="wCvgVBTp_6"></path>
    </g>
    <g id="Ellipse_4" data-name="Ellipse 4" transform="translate(1044.629 721.682)" fill="none" stroke-linecap="round" stroke-linejoin="bevel">
      <path d="M3.5,0A3.279,3.279,0,0,1,7,3,3.279,3.279,0,0,1,3.5,6,3.279,3.279,0,0,1,0,3,3.279,3.279,0,0,1,3.5,0Z" stroke="none" class="wCvgVBTp_7"></path>
      <path d="M 3.5 0 C 5.433000087738037 0 7 1.34315013885498 7 3 C 7 4.65684986114502 5.433000087738037 6 3.5 6 C 1.566999912261963 6 0 4.65684986114502 0 3 C 0 1.34315013885498 1.566999912261963 0 3.5 0 Z" stroke="none" fill="#010000" class="wCvgVBTp_8"></path>
    </g>
    <path id="Path_8" data-name="Path 8" d="M2057.9,1966.32s-71.971,129.547-77.573,178.565" transform="translate(-801.007 -1349)" fill="none" stroke="#010000" stroke-linecap="round" stroke-width="4" class="wCvgVBTp_9"></path>
    <path id="Path_9" data-name="Path 9" d="M2133.68,1951s-17.7,29.561-37.64,69.4c-23.2,46.364-49.445,106.906-53.043,149.336" transform="translate(-801.007 -1349)" fill="none" stroke="#010000" stroke-linecap="round" stroke-linejoin="bevel" stroke-width="4" class="wCvgVBTp_10"></path>
    <path id="Path_10" data-name="Path 10" d="M1965.27,2044.74s122.545-15.056,154.056-9.453" transform="translate(-803.007 -1326.5)" fill="none" stroke="#010000" stroke-linecap="round" stroke-width="4" class="wCvgVBTp_11"></path>
    <g id="Path_11" data-name="Path 11" transform="translate(-801.007 -1314)" fill="none" stroke-linecap="round" stroke-linejoin="bevel">
      <path d="M2124.76,2050.73c-.127-.19-4.565-3.529-9.157-2.693-4.893.887-9.81,5.764-13.085,12.658-6.653,14-4.9,22.218,0,23.968s11.55,1.08,14.7-2.422,9.458-11.934,10.158-19.987S2124.76,2050.73,2124.76,2050.73Z" stroke="none" class="wCvgVBTp_12"></path>
      <path d="M 2117.119384765625 2051.90283203125 L 2117.119384765625 2051.90283203125 C 2116.841552734375 2051.90283203125 2116.572265625 2051.926025390625 2116.31640625 2051.97265625 C 2112.84228515625 2052.6025390625 2108.84423828125 2056.699951171875 2106.131103515625 2062.4111328125 C 2104.138916015625 2066.604736328125 2102.87890625 2070.37158203125 2102.3857421875 2073.606689453125 C 2102.009033203125 2076.0791015625 2102.112548828125 2078.193115234375 2102.677490234375 2079.559326171875 C 2103.12060546875 2080.630615234375 2103.6796875 2080.830322265625 2103.863525390625 2080.89599609375 C 2105.14111328125 2081.352294921875 2106.605712890625 2081.59326171875 2108.098876953125 2081.59326171875 C 2110.764404296875 2081.59326171875 2113.119140625 2080.81640625 2114.243896484375 2079.56591796875 C 2115.171142578125 2078.534912109375 2117.564208984375 2075.72900390625 2119.754638671875 2071.948486328125 C 2121.881591796875 2068.27734375 2123.13916015625 2064.80517578125 2123.39111328125 2061.9072265625 C 2123.662109375 2058.787109375 2123.201416015625 2056.6279296875 2122.76708984375 2055.365966796875 C 2122.446533203125 2054.434814453125 2122.09375 2053.845703125 2121.910400390625 2053.5751953125 C 2121.163330078125 2053.066650390625 2119.099365234375 2051.90283203125 2117.119384765625 2051.90283203125 M 2117.119384765625 2047.90283203125 C 2121.12646484375 2047.90283203125 2124.647216796875 2050.56103515625 2124.760009765625 2050.72998046875 C 2124.760009765625 2050.72998046875 2128.075927734375 2054.20068359375 2127.3759765625 2062.253662109375 C 2126.676025390625 2070.306640625 2120.367919921875 2078.738525390625 2117.218017578125 2082.24072265625 C 2114.068359375 2085.7431640625 2107.41796875 2086.413330078125 2102.51806640625 2084.662841796875 C 2097.6181640625 2082.912841796875 2095.864990234375 2074.69970703125 2102.51806640625 2060.69482421875 C 2105.79296875 2053.80078125 2110.7099609375 2048.923828125 2115.60302734375 2048.036865234375 C 2116.1123046875 2047.944091796875 2116.61962890625 2047.90283203125 2117.119384765625 2047.90283203125 Z" stroke="none" fill="#010000" class="wCvgVBTp_13"></path>
    </g>
    <path id="Path_12" data-name="Path 12" d="M2126.1,2053.5s9.362,6.433,14.964,2.932,6.99-9.721,14.343-9.721" transform="translate(-801.007 -1301.683)" fill="none" stroke="#010000" stroke-linecap="round" stroke-linejoin="bevel" stroke-width="4" class="wCvgVBTp_14"></path>
    <path id="Path_17" data-name="Path 17" d="M2395.05,1919.88s-19.766,7.9-15,33.172c1.536,8.147,2.512,13.107,0,19.475-1.85,4.694-6.9,11.519-8.825,12.407-10.359,4.765-14.586.024-3.4-12.407,8.178-9.087,31.855-28.359,44.211-38.237,4.26-3.406,17.819-13.374,17.819-13.374s-9.15,4.128-15.124,11.6c-4.339,5.427-6.552,13.69-2.7,18.669,8.826,11.4.416,29.6-8.285,34.989s-15.415-6.813,1.988-20.28c16.5-12.766,48.378-23.066,52.208-24.118" transform="translate(-1025.007 -1202.565)" fill="none" stroke="#010000" stroke-linecap="round" stroke-linejoin="bevel" stroke-width="4" class="wCvgVBTp_15"></path>
    <path id="Path_18" data-name="Path 18" d="M2463.62,1941.66c.065-6.706,6.556-14.238,6.617-14.3h0a5.09,5.09,0,0,1-.26,3.126,5.367,5.367,0,0,1-1.875,1.855,21.917,21.917,0,0,0-4.482,4.72c-2.71,3.57-5.038,7.286-5.67,7.917-1.036,1.036-19.682,26.312-26.726,18.853s3.729-18.646,25.276-31.491c4.831-2.88,6.929,1,7.12,1.467.911,1.234,0,3.845,0,3.845" transform="translate(-1015.495 -1197.934)" fill="none" stroke="#010000" stroke-linecap="round" stroke-linejoin="bevel" stroke-width="4" class="wCvgVBTp_16"></path>
    <path id="Path_15" data-name="Path 15" d="M2232.73,2040.13l-.725,10.808s.061,45.627,28.772,15.166c14.843-15.749,15.069-22.906,13.054-23.675-1.293-.565-4.352,3.844-4.352,3.844l-3.554,7.036-3.627,8.85s-5.722,23.206,5.482,15.5,34.313-26.61,36.763-31.862.187-7.531-1.914-6.129-12.622,44.829-12.622,44.829-1.563,4.906-3.554,4.86c-1.171.027-3.14-4.325,1.284-11.7,9.453-15.756,30.811-35.713,31.511-30.461s.7,36.763,14.705,25.909a135.359,135.359,0,0,0,22.759-22.408" transform="translate(-784.007 -1305.87)" fill="none" stroke="#010000" stroke-linecap="round" stroke-linejoin="bevel" stroke-width="4" class="wCvgVBTp_17"></path>
    <g id="Ellipse_4-2" data-name="Ellipse 4" transform="translate(1490.993 722.444)" fill="none" stroke-linecap="round" stroke-linejoin="bevel">
      <path d="M3.5,0A3.279,3.279,0,0,1,7,3,3.279,3.279,0,0,1,3.5,6,3.279,3.279,0,0,1,0,3,3.279,3.279,0,0,1,3.5,0Z" stroke="none" class="wCvgVBTp_18"></path>
      <path d="M 3.5 0 C 5.433000087738037 0 7 1.34315013885498 7 3 C 7 4.65684986114502 5.433000087738037 6 3.5 6 C 1.566999912261963 6 0 4.65684986114502 0 3 C 0 1.34315013885498 1.566999912261963 0 3.5 0 Z" stroke="none" fill="#010000" class="wCvgVBTp_19"></path>
    </g>
    <path id="Path_19" data-name="Path 19" d="M2677.31,1965.88l47.793-154.758" transform="translate(-1041.007 -1158.729)" fill="none" stroke="#010000" stroke-linecap="round" stroke-width="4" class="wCvgVBTp_20"></path>
    <path id="Path_20" data-name="Path 20" d="M2679.43,1832.7s2.279-6.215,25.9-29.626,75.62-18.853,82.25,27.14-50.344,79.971-50.344,79.971-78.521,31.284-68.162,10.152,44.75-2.072,44.75-2.072,48.351,63.954,64.926,45.308" transform="translate(-1041.007 -1162.729)" fill="none" stroke="#010000" stroke-linecap="round" stroke-linejoin="bevel" stroke-width="4" class="wCvgVBTp_21"></path>
    <path id="Path_22" data-name="Path 22" d="M2797.32,1869.37s-28.176,52.209,3.108,28.383,25.483-23.618,25.483-23.618l-34.392,70.233s-26.519,43.922-35.013,38.95-7.666-18.232,10.152-38.95c13.345-15.518,50.982-50.329,73.026-64.637,7.056-4.58,12.581-7,14.817-5.6,8.909,5.594,4.972,26.1-3.315,31.077s-23.618,8.494-15.124-15.953,19.889-15.124,19.889-15.124,30.041,4.351,14.917,29.419c-5.581,9.25-6.889,5.62-3.418-1.993,2.837-6.224,9.358-15.844,14.024-23.905a123.751,123.751,0,0,0,6.678-13.216h0a46.251,46.251,0,0,0-11.069,13.216c-3.615,6.565-5.922,17.142,0,11.6,12.845-12.016,18.634-22.445,20.473-16.438s-2.82,32.854,8.949,27.338,28.073-18.634,27.46-23.17" transform="translate(-1041.007 -1162.729)" fill="none" stroke="#010000" stroke-linecap="round" stroke-linejoin="bevel" stroke-width="4" class="wCvgVBTp_22"></path>
    <g id="Ellipse_4-3" data-name="Ellipse 4" transform="translate(1757.993 694.886)" fill="none" stroke-linecap="round" stroke-linejoin="bevel">
      <path d="M3.5,0A3.279,3.279,0,0,1,7,3,3.279,3.279,0,0,1,3.5,6,3.279,3.279,0,0,1,0,3,3.279,3.279,0,0,1,3.5,0Z" stroke="none" class="wCvgVBTp_23"></path>
      <path d="M 3.5 0 C 5.433000087738037 0 7 1.34315013885498 7 3 C 7 4.65684986114502 5.433000087738037 6 3.5 6 C 1.566999912261963 6 0 4.65684986114502 0 3 C 0 1.34315013885498 1.566999912261963 0 3.5 0 Z" stroke="none" fill="#010000" class="wCvgVBTp_24"></path>
    </g>
    <g id="Ellipse_4-4" data-name="Ellipse 4" transform="translate(1785.993 695.883)" fill="none" stroke-linecap="round" stroke-linejoin="bevel">
      <path d="M3.5-1C5.433-1,7,1.343,7,3A3.279,3.279,0,0,1,3.5,6,3.279,3.279,0,0,1,0,3C0,1.343,1.567-1,3.5-1Z" stroke="none" class="wCvgVBTp_25"></path>
      <path d="M 3.5 -1 C 5.433000087738037 -1 7 1.343149900436401 7 3 C 7 4.65684986114502 5.433000087738037 6 3.5 6 C 1.566999912261963 6 0 4.65684986114502 0 3 C 0 1.343149900436401 1.566999912261963 -1 3.5 -1 Z" stroke="none" fill="#010000" class="wCvgVBTp_26"></path>
    </g>
  </g>
<style data-made-with="vivus-instant">.wCvgVBTp_0{stroke-dasharray:428 430;stroke-dashoffset:429;animation:wCvgVBTp_draw 422ms ease-in-out 0ms forwards;}.wCvgVBTp_1{stroke-dasharray:101 103;stroke-dashoffset:102;animation:wCvgVBTp_draw 100ms ease-in-out 422ms forwards;}.wCvgVBTp_2{stroke-dasharray:172 174;stroke-dashoffset:173;animation:wCvgVBTp_draw 170ms ease-in-out 523ms forwards;}.wCvgVBTp_3{stroke-dasharray:292 294;stroke-dashoffset:293;animation:wCvgVBTp_draw 288ms ease-in-out 693ms forwards;}.wCvgVBTp_4{stroke-dasharray:471 473;stroke-dashoffset:472;animation:wCvgVBTp_draw 465ms ease-in-out 982ms forwards;}.wCvgVBTp_5{stroke-dasharray:109 111;stroke-dashoffset:110;animation:wCvgVBTp_draw 108ms ease-in-out 1447ms forwards;}.wCvgVBTp_6{stroke-dasharray:193 195;stroke-dashoffset:194;animation:wCvgVBTp_draw 191ms ease-in-out 1556ms forwards;}.wCvgVBTp_7{stroke-dasharray:21 23;stroke-dashoffset:22;animation:wCvgVBTp_draw 21ms ease-in-out 1747ms forwards;}.wCvgVBTp_8{stroke-dasharray:21 23;stroke-dashoffset:22;animation:wCvgVBTp_draw 21ms ease-in-out 1769ms forwards;}.wCvgVBTp_9{stroke-dasharray:196 198;stroke-dashoffset:197;animation:wCvgVBTp_draw 194ms ease-in-out 1790ms forwards;}.wCvgVBTp_10{stroke-dasharray:239 241;stroke-dashoffset:240;animation:wCvgVBTp_draw 236ms ease-in-out 1985ms forwards;}.wCvgVBTp_11{stroke-dasharray:155 157;stroke-dashoffset:156;animation:wCvgVBTp_draw 153ms ease-in-out 2221ms forwards;}.wCvgVBTp_12{stroke-dasharray:106 108;stroke-dashoffset:107;animation:wCvgVBTp_draw 105ms ease-in-out 2375ms forwards;}.wCvgVBTp_13{stroke-dasharray:187 189;stroke-dashoffset:188;animation:wCvgVBTp_draw 185ms ease-in-out 2480ms forwards;}.wCvgVBTp_14{stroke-dasharray:34 36;stroke-dashoffset:35;animation:wCvgVBTp_draw 34ms ease-in-out 2666ms forwards;}.wCvgVBTp_15{stroke-dasharray:351 353;stroke-dashoffset:352;animation:wCvgVBTp_draw 346ms ease-in-out 2700ms forwards;}.wCvgVBTp_16{stroke-dasharray:131 133;stroke-dashoffset:132;animation:wCvgVBTp_draw 130ms ease-in-out 3047ms forwards;}.wCvgVBTp_17{stroke-dasharray:376 378;stroke-dashoffset:377;animation:wCvgVBTp_draw 371ms ease-in-out 3177ms forwards;}.wCvgVBTp_18{stroke-dasharray:21 23;stroke-dashoffset:22;animation:wCvgVBTp_draw 21ms ease-in-out 3549ms forwards;}.wCvgVBTp_19{stroke-dasharray:21 23;stroke-dashoffset:22;animation:wCvgVBTp_draw 21ms ease-in-out 3570ms forwards;}.wCvgVBTp_20{stroke-dasharray:162 164;stroke-dashoffset:163;animation:wCvgVBTp_draw 160ms ease-in-out 3592ms forwards;}.wCvgVBTp_21{stroke-dasharray:460 462;stroke-dashoffset:461;animation:wCvgVBTp_draw 454ms ease-in-out 3753ms forwards;}.wCvgVBTp_22{stroke-dasharray:713 715;stroke-dashoffset:714;animation:wCvgVBTp_draw 703ms ease-in-out 4207ms forwards;}.wCvgVBTp_23{stroke-dasharray:21 23;stroke-dashoffset:22;animation:wCvgVBTp_draw 21ms ease-in-out 4911ms forwards;}.wCvgVBTp_24{stroke-dasharray:21 23;stroke-dashoffset:22;animation:wCvgVBTp_draw 21ms ease-in-out 4932ms forwards;}.wCvgVBTp_25{stroke-dasharray:22 24;stroke-dashoffset:23;animation:wCvgVBTp_draw 22ms ease-in-out 4954ms forwards;}.wCvgVBTp_26{stroke-dasharray:22 24;stroke-dashoffset:23;animation:wCvgVBTp_draw 22ms ease-in-out 4977ms forwards;}@keyframes wCvgVBTp_draw{100%{stroke-dashoffset:0;}}@keyframes wCvgVBTp_fade{0%{stroke-opacity:1;}95.65217391304348%{stroke-opacity:1;}100%{stroke-opacity:0;}}</style></svg>
